<?xml version="1.0" encoding="UTF-8" standalone="no"?>
<!-- Generator: Adobe Illustrator 16.0.0, SVG Export Plug-In . SVG Version: 6.00 Build 0)  -->

<svg
   xmlns:dc="http://purl.org/dc/elements/1.1/"
   xmlns:cc="http://creativecommons.org/ns#"
   xmlns:rdf="http://www.w3.org/1999/02/22-rdf-syntax-ns#"
   xmlns:svg="http://www.w3.org/2000/svg"
   xmlns="http://www.w3.org/2000/svg"
   xmlns:sodipodi="http://sodipodi.sourceforge.net/DTD/sodipodi-0.dtd"
   xmlns:inkscape="http://www.inkscape.org/namespaces/inkscape"
   version="1.1"
   id="Layer_1"
   x="0px"
   y="0px"
   width="50"
   height="50"
   viewBox="0 0 50.000002 50.000001"
   enable-background="new 0 0 355.507 331.508"
   xml:space="preserve"
   sodipodi:docname="logo.svg"
   inkscape:version="0.92.2 (5c3e80d, 2017-08-06)"><metadata
     id="metadata882"><rdf:RDF><cc:Work
         rdf:about=""><dc:format>image/svg+xml</dc:format><dc:type
           rdf:resource="http://purl.org/dc/dcmitype/StillImage" /><dc:title></dc:title></cc:Work></rdf:RDF></metadata><defs
     id="defs880" /><sodipodi:namedview
     pagecolor="#ffffff"
     bordercolor="#666666"
     borderopacity="1"
     objecttolerance="10"
     gridtolerance="10"
     guidetolerance="10"
     inkscape:pageopacity="0"
     inkscape:pageshadow="2"
     inkscape:window-width="1841"
     inkscape:window-height="1057"
     id="namedview878"
     showgrid="false"
     inkscape:zoom="8.0542106"
     inkscape:cx="55.365509"
     inkscape:cy="53.449775"
     inkscape:window-x="-8"
     inkscape:window-y="-8"
     inkscape:window-maximized="1"
     inkscape:current-layer="Layer_1" /><rect
     x="0"
     y="0.15836978"
     width="53.448917"
     height="49.840622"
     id="rect831"
     style="fill:none;stroke-width:0.15034561" /><g
     id="Layer_1_1_"
     display="none"
     style="display:none"
     transform="translate(0,-281.508)"><g
       display="inline"
       id="g837"
       style="display:inline"><path
         d="m 568.693,72.552 -76.614,44.232 v 88.465 l 25.537,14.744 v 29.486 l 25.539,-14.744 25.538,14.744 76.613,-44.23 v -88.467 z m 38.513,110.7 -38.514,22.234 -38.515,-22.234 V 138.78 l 38.515,-22.234 38.514,22.234 z"
         id="path833"
         inkscape:connector-curvature="0" /><polygon
         points="568.693,161.016 568.693,198.943 601.537,179.979 601.537,142.054 601.536,142.054 "
         id="polygon835" /></g><g
       display="inline"
       id="g857"
       style="display:inline"><path
         d="m 122.795,72.552 v 6.256 H 94.119 v 14.858 h 21.937 v 6.219 H 94.119 v 19.851 h 28.676 v 6.219 H 87.45 V 72.552 Z"
         id="path839"
         inkscape:connector-curvature="0" /><path
         d="m 176.09,72.552 -21.447,53.399 h -6.817 L 126.339,72.552 h 7.188 l 17.689,44.503 17.684,-44.503 z"
         id="path841"
         inkscape:connector-curvature="0" /><path
         d="m 182.582,72.552 h 6.666 v 53.399 h -6.666 z"
         id="path843"
         inkscape:connector-curvature="0" /><path
         d="m 241.498,99.289 c 0,14.641 -12.142,26.665 -26.926,26.665 H 199.045 V 72.586 h 15.527 c 14.595,0 26.926,11.77 26.926,26.703 z m -6.849,0 c 0,-10.979 -8.308,-20.56 -20.077,-20.56 h -8.861 v 41.116 h 8.861 c 11.026,0.001 20.077,-8.935 20.077,-20.556 z"
         id="path845"
         inkscape:connector-curvature="0" /><path
         d="m 284.187,72.552 v 6.256 H 255.51 v 14.858 h 21.935 v 6.219 H 255.51 v 19.851 h 28.676 v 6.219 H 248.839 V 72.552 Z"
         id="path847"
         inkscape:connector-curvature="0" /><path
         d="m 335.061,72.586 v 53.367 h -3.907 L 297.223,84.32 v 41.633 h -6.626 V 72.586 h 3.875 l 33.888,41.676 V 72.586 Z"
         id="path849"
         inkscape:connector-curvature="0" /><path
         d="m 387.769,72.552 v 6.217 h -19.813 v 47.186 H 361.29 V 78.769 h -19.775 v -6.217 z"
         id="path851"
         inkscape:connector-curvature="0" /><path
         d="m 400.849,72.552 v 47.184 h 28.637 v 6.219 H 394.185 V 72.552 Z"
         id="path853"
         inkscape:connector-curvature="0" /><path
         d="m 464.982,72.586 -18.547,31.652 v 21.715 H 439.77 V 104.206 L 421.224,72.585 h 7.598 l 14.304,24.878 14.3,-24.878 z"
         id="path855"
         inkscape:connector-curvature="0" /></g><g
       display="inline"
       id="g867"
       style="display:inline"><path
         d="m 178.125,215.695 c -5.914,20.43 -25.065,33.803 -46.708,33.803 -27.213,0 -48.985,-21.235 -48.985,-48.188 0,-26.609 21.302,-48.247 48.985,-48.247 21.371,0 40.456,12.972 46.708,33.869 l -15.32,4.698 c -4.033,-14.041 -16.47,-23.921 -31.387,-23.921 -18.479,0 -32.317,14.646 -32.317,33.601 0,18.146 13.301,33.602 32.317,33.602 14.984,0 27.149,-9.478 31.387,-23.988 z"
         id="path859"
         inkscape:connector-curvature="0" /><path
         d="m 276.259,153.063 v 54.973 c 0,23.05 -15.793,41.462 -39.721,41.462 -23.117,0 -39.646,-17.943 -39.646,-41.462 v -54.973 h 16.13 v 54.297 c 0,13.575 8.064,27.212 23.59,27.212 14.648,0 23.52,-12.697 23.52,-27.212 v -54.297 z"
         id="path861"
         inkscape:connector-curvature="0" /><path
         d="m 356.72,198.086 c 9.34,4.102 16.665,12.295 16.665,23.45 0,16.468 -12.298,27.959 -28.226,27.959 H 299.19 v -96.299 h 36.962 c 15.521,0 28.156,11.224 28.156,27.888 0.005,6.517 -2.819,12.369 -7.588,17.002 z m -41.463,-30.441 v 26.409 h 21.104 c 6.648,-0.405 13.238,-5.443 13.238,-13.238 0,-7.595 -6.587,-13.171 -14.313,-13.171 z m 27.953,67.202 c 7.123,0 14.379,-5.044 14.379,-13.575 0,-7.796 -6.516,-13.576 -14.312,-13.576 h -28.021 v 27.151 z"
         id="path863"
         inkscape:connector-curvature="0" /><path
         d="m 459.963,153.131 v 14.917 H 410.3 v 21.306 h 37.501 v 14.918 H 410.3 v 30.37 h 49.663 v 14.854 h -65.79 V 153.13 Z"
         id="path865"
         inkscape:connector-curvature="0" /></g></g><g
     id="Layer_1_copy"
     style="fill:#ffffff;fill-opacity:1"
     transform="matrix(0.15034561,0,0,0.15034561,-1.7243832,0.15836891)"><g
       id="g874"
       style="fill:#ffffff;fill-opacity:1"><path
         d="m 177.755,55.25 -95.699,55.255 v 110.5 l 31.899,18.416 v 36.836 l 31.9,-18.418 31.896,18.418 95.699,-55.252 V 110.502 Z m 48.109,138.279 -48.108,27.773 -48.104,-27.773 v -55.552 l 48.104,-27.772 48.108,27.772 z"
         id="path870"
         inkscape:connector-curvature="0"
         style="fill:#ffffff;fill-opacity:1" /><polygon
         points="177.755,118.381 136.728,142.068 136.728,189.439 177.755,213.127 177.755,165.752 218.784,142.067 "
         id="polygon872"
         style="fill:#ffffff;fill-opacity:1" /></g></g></svg>